# xmcd CD database file
#
# Track frame offsets:
#	150
#	19885
#	54618
#	74053
#	111168
#	134114
#	145900
#
# Disc length: 2378 seconds
#
# Revision: 0
# Processed by: cddbd v1.5.2PL0 Copyright (c) Steve Scherf et al.
# Submitted via: CDex 1.75
#
DISCID=72094807
DTITLE=Sun Ra - The Nubians of Plutonia
DYEAR=1966
DGENRE=Jazz
TTITLE0=Plutonian Nights
TTITLE1=The Golden Lady
TTITLE2=Star Time
TTITLE3=Nubia
TTITLE4=Africa
TTITLE5=Watusa
TTITLE6=Aiethopia
EXTD=YEAR: 1966
EXTT0=
EXTT1=
EXTT2=
EXTT3=
EXTT4=
EXTT5=
EXTT6=
PLAYORDER=
